<?xml version="1.0" encoding="UTF-8" standalone="no"?>
<svg
   xmlns:dc="http://purl.org/dc/elements/1.1/"
   xmlns:cc="http://creativecommons.org/ns#"
   xmlns:rdf="http://www.w3.org/1999/02/22-rdf-syntax-ns#"
   xmlns:svg="http://www.w3.org/2000/svg"
   xmlns="http://www.w3.org/2000/svg"
   enable-background="new"
   id="svg2273"
   version="1.1"
   viewBox="0 0 70.471916 61.030655"
   height="61.030655mm"
   width="70.471916mm">
  <defs
     id="defs2267" />
  <metadata
     id="metadata2270">
    <rdf:RDF>
      <cc:Work
         rdf:about="">
        <dc:format>image/svg+xml</dc:format>
        <dc:type
           rdf:resource="http://purl.org/dc/dcmitype/StillImage" />
        <dc:title></dc:title>
      </cc:Work>
    </rdf:RDF>
  </metadata>
  <g
     style="display:inline"
     transform="translate(-69.764042,-117.98468)"
     id="trifoil_hex">
    <path
       class="hex"
       d="m 87.382214,117.98455 -1.122929,1.9451 0.916223,0.52917 0.817521,-1.41594 h 1.634526 v -1.05833 z m 6.637837,0 v 1.05833 h 4.39198 v -1.05833 z m 8.783959,0 v 1.05833 h 4.3925 v -1.05833 z m 8.78448,0 v 1.05833 h 4.39198 v -1.05833 z m 8.78396,0 v 1.05833 h 1.63452 l 0.81752,1.41594 0.91623,-0.52917 -1.12242,-1.9451 z m -36.309413,5.74849 -2.196249,3.8039 0.91674,0.52917 2.196248,-3.80391 z m 41.873923,0 -0.91674,0.52916 2.19625,3.80391 0.91674,-0.52917 z m -46.265903,7.60728 -2.195732,3.80391 0.916223,0.52916 2.195732,-3.8039 z m 50.657883,0 -0.91622,0.52917 2.19625,3.8039 0.91622,-0.52916 z m -55.049863,7.60729 -2.196248,3.8039 0.916739,0.52917 2.195732,-3.8039 z m 59.441843,0 -0.91622,0.52917 2.19573,3.8039 0.91674,-0.52917 z m -63.833823,7.60781 -1.122929,1.94458 1.122929,1.9451 0.916223,-0.52916 -0.817004,-1.41594 0.817004,-1.41542 z m 68.226323,0 -0.91674,0.52916 0.81752,1.41542 -0.81752,1.41594 0.91674,0.52916 1.12241,-1.9451 z m -65.113852,7.1639 -0.916739,0.52917 2.196248,3.80338 0.91674,-0.52916 z m 62.000862,0 -2.19573,3.80339 0.91622,0.52916 2.19625,-3.80338 z m -57.608882,7.60677 -0.916223,0.52917 2.195732,3.8039 0.91674,-0.52917 z m 53.216902,5.3e-4 -2.19573,3.8039 0.91622,0.52917 2.19625,-3.8039 z m -48.824922,7.60729 -0.916223,0.52916 2.195732,3.80391 0.916739,-0.52917 z m 44.432942,0 -2.19625,3.80338 0.91674,0.52917 2.19574,-3.80339 z m -40.040962,7.60729 -0.916223,0.52916 1.122929,1.9451 h 2.245858 v -1.05833 h -1.635043 z m 35.648982,0 -0.81752,1.41593 h -1.63452 v 1.05833 h 2.24585 l 1.12242,-1.9451 z m -28.804439,1.41593 v 1.05833 h 4.39198 v -1.05833 z m 8.783959,0 v 1.05833 h 4.3925 v -1.05833 z m 8.78448,0 v 1.05833 h 4.39198 v -1.05833 z"
    />
    <path
       d="m 104.99975,129.61796 c -10.437663,0 -18.882058,8.44441 -18.882058,18.88205 0,10.43765 8.444395,18.88205 18.882058,18.88205 10.43764,0 18.88256,-8.4444 18.88256,-18.88205 0,-10.43764 -8.44492,-18.88205 -18.88256,-18.88205 z m 0,1.41593 c 9.65089,0 17.57101,7.92014 17.57101,17.57102 0.10487,9.65089 -7.92012,17.57102 -17.57101,17.57102 -9.650896,0 -17.571027,-7.92013 -17.571027,-17.57102 0,-9.65088 7.920131,-17.57102 17.571027,-17.57102 z m 0,2.2686 c -2.58319,0 -5.16602,0.69521 -7.552516,2.08514 l 4.877736,8.54935 c 0.78675,-0.41961 1.6782,-0.68213 2.67478,-0.68213 0.99655,0 1.88851,0.21007 2.67529,0.68213 l 4.87773,-8.54935 c -2.3865,-1.38993 -4.96984,-2.08514 -7.55302,-2.08514 z m 0,12.20804 a 2.9896781,2.9896781 0 0 0 -2.98949,2.98948 2.9896781,2.9896781 0 0 0 2.98949,2.99 2.9896781,2.9896781 0 0 0 2.98999,-2.99 2.9896781,2.9896781 0 0 0 -2.98999,-2.98948 z m -15.158254,2.98948 c 0,5.55976 2.780049,10.333 7.553027,13.11289 l 4.877737,-8.54935 c -1.52106,-0.89165 -2.517674,-2.57042 -2.517674,-4.56354 z m 20.456114,0.1049 c 0.0525,1.88822 -1.04906,3.67189 -2.62257,4.56355 l 4.98264,8.54935 c 4.77299,-2.77987 7.55302,-7.55315 7.55302,-13.1129 z"
       class="trifoil" />
  </g>
</svg>
