<?xml version="1.0" encoding="UTF-8" standalone="no"?>
<svg
   xmlns:dc="http://purl.org/dc/elements/1.1/"
   xmlns:cc="http://creativecommons.org/ns#"
   xmlns:rdf="http://www.w3.org/1999/02/22-rdf-syntax-ns#"
   xmlns:svg="http://www.w3.org/2000/svg"
   xmlns="http://www.w3.org/2000/svg"
   viewBox="0 0 356 837.33331"
   height="837.33331"
   width="356"
   xml:space="preserve"
   id="svg834"
   version="1.1"><metadata
     id="metadata840"><rdf:RDF><cc:Work
         rdf:about=""><dc:format>image/svg+xml</dc:format><dc:type
           rdf:resource="http://purl.org/dc/dcmitype/StillImage" /><dc:title></dc:title></cc:Work></rdf:RDF></metadata><defs
     id="defs838"><clipPath
       id="clipPath894"
       clipPathUnits="userSpaceOnUse"><path
         id="path892"
         d="M 0,628 H 267 V 0 H 0 Z" /></clipPath></defs><g
     transform="matrix(1.3333333,0,0,-1.3333333,0,837.33333)"
     id="g842"><g
       transform="translate(180.0654,428)"
       id="g844"><path
         id="path846"
         style="fill:#12222c;fill-opacity:1;fill-rule:nonzero;stroke:none"
         d="m 0,0 h -6.366 v 3 h 4.634 l 2.317,4.013 2.598,-1.5 z" /></g><g
       transform="translate(220.5981,498.2051)"
       id="g848"><path
         id="path850"
         style="fill:#12222c;fill-opacity:1;fill-rule:nonzero;stroke:none"
         d="m 0,0 -2.598,1.5 -6.225,-10.782 2.598,-1.5 z m -12.45,-21.564 -2.598,1.5 -6.225,-10.783 2.598,-1.5 z m -12.45,-21.564 -2.598,1.5 -6.225,-10.782 2.598,-1.5 z" /></g><g
       transform="translate(226.8232,508.9863)"
       id="g852"><path
         id="path854"
         style="fill:#12222c;fill-opacity:1;fill-rule:nonzero;stroke:none"
         d="M 0,0 -2.598,1.5 -0.281,5.514 -2.598,9.526 0,11.026 3.183,5.514 Z" /></g><g
       transform="translate(195.6982,573.9229)"
       id="g856"><path
         id="path858"
         style="fill:#12222c;fill-opacity:1;fill-rule:nonzero;stroke:none"
         d="M 0,0 -6.225,10.782 -8.823,9.282 -2.598,-1.5 Z m 12.45,-21.564 -6.225,10.782 -2.598,-1.5 6.226,-10.782 z m 12.45,-21.564 -6.225,10.782 -2.598,-1.5 6.225,-10.782 z" /></g><g
       transform="translate(180.6504,593.9863)"
       id="g860"><path
         id="path862"
         style="fill:#12222c;fill-opacity:1;fill-rule:nonzero;stroke:none"
         d="m 0,0 -2.317,4.014 h -4.634 v 3 h 6.366 L 2.598,1.5 Z" /></g><path
       id="path864"
       style="fill:#12222c;fill-opacity:1;fill-rule:nonzero;stroke:none"
       d="M 111.45,601 H 99 v -3 h 12.45 z m 24.9,0 H 123.9 v -3 h 12.45 z m 24.9,0 H 148.8 v -3 h 12.45 z" /><g
       transform="translate(79.5986,593.9863)"
       id="g866"><path
         id="path868"
         style="fill:#12222c;fill-opacity:1;fill-rule:nonzero;stroke:none"
         d="m 0,0 -2.598,1.5 3.183,5.514 h 6.366 v -3 H 2.317 Z" /></g><g
       transform="translate(73.3735,583.2051)"
       id="g870"><path
         id="path872"
         style="fill:#12222c;fill-opacity:1;fill-rule:nonzero;stroke:none"
         d="m 0,0 -2.598,1.5 -6.225,-10.782 2.598,-1.5 z m -12.45,-21.563 -2.597,1.5 -6.225,-10.783 2.597,-1.5 z m -12.45,-21.565 -2.598,1.5 -6.225,-10.782 2.598,-1.5 z" /></g><g
       transform="translate(33.4263,508.9863)"
       id="g874"><path
         id="path876"
         style="fill:#12222c;fill-opacity:1;fill-rule:nonzero;stroke:none"
         d="M 0,0 -3.183,5.514 0,11.026 2.598,9.526 0.281,5.514 2.598,1.5 Z" /></g><g
       transform="translate(48.4741,488.9229)"
       id="g878"><path
         id="path880"
         style="fill:#12222c;fill-opacity:1;fill-rule:nonzero;stroke:none"
         d="M 0,0 -6.225,10.782 -8.823,9.282 -2.598,-1.5 Z m 12.45,-21.563 -6.225,10.782 -2.598,-1.5 6.225,-10.782 z m 12.45,-21.565 -6.225,10.782 -2.598,-1.5 6.225,-10.782 z" /></g><g
       transform="translate(86.5498,428)"
       id="g882"><path
         id="path884"
         style="fill:#12222c;fill-opacity:1;fill-rule:nonzero;stroke:none"
         d="m 0,0 h -6.366 l -3.183,5.513 2.598,1.5 L -4.634,3 H 0 Z" /></g><path
       id="path886"
       style="fill:#12222c;fill-opacity:1;fill-rule:nonzero;stroke:none"
       d="M 111.45,431 H 99 v -3 h 12.45 z m 24.9,0 H 123.9 v -3 h 12.45 z m 24.9,0 H 148.8 v -3 h 12.45 z" /><g
       id="g888"><g
         clip-path="url(#clipPath894)"
         id="g890"><g
           transform="translate(143.7931,337.9461)"
           id="g896"><path
             id="path898"
             style="fill:#12222c;fill-opacity:1;fill-rule:nonzero;stroke:none"
             d="m 0,0 c 0,-4.41 -3.575,-7.984 -7.984,-7.984 -4.41,0 -7.985,3.574 -7.985,7.984 0,4.41 3.575,7.984 7.985,7.984 C -3.575,7.984 0,4.41 0,0" /></g><g
           transform="translate(173.5638,335.0717)"
           id="g900"><path
             id="path902"
             style="fill:#12222c;fill-opacity:1;fill-rule:nonzero;stroke:none"
             d="m 0,0 c -3.843,-4.046 -8.476,-7.975 -13.689,-11.624 -0.646,-5.176 -1.63,-10.018 -2.903,-14.417 2.457,-0.327 4.824,-0.504 7.058,-0.504 8.211,0 13.918,2.282 16.069,6.426 C 9.177,-15.03 6.44,-7.657 0,0 m -21.85,-29.2 c -5.074,1.018 -10.414,2.603 -15.812,4.694 -5.444,-2.152 -10.831,-3.785 -15.947,-4.835 3.879,-10.747 9.597,-17.687 15.854,-17.687 6.284,0 12.026,7 15.905,17.828 m -37.02,2.997 c -1.287,4.409 -2.283,9.268 -2.936,14.464 -5.306,3.662 -9.923,7.547 -13.702,11.474 -0.239,-0.29 -0.484,-0.579 -0.713,-0.87 -6.037,-7.639 -8.104,-14.667 -5.669,-19.28 2.15,-4.076 7.768,-6.32 15.819,-6.32 2.277,0 4.692,0.187 7.201,0.532 M -75.51,5.749 c 3.843,4.046 8.476,7.974 13.689,11.624 0.645,5.176 1.63,10.018 2.903,14.417 -2.457,0.327 -4.824,0.504 -7.059,0.504 -8.21,0 -13.917,-2.282 -16.068,-6.426 -2.642,-5.089 0.095,-12.462 6.535,-20.119 m 21.85,29.2 c 5.073,-1.018 10.414,-2.604 15.811,-4.694 5.445,2.152 10.832,3.784 15.948,4.835 -3.879,10.747 -9.597,17.687 -15.854,17.687 -6.285,0 -12.026,-7 -15.905,-17.828 M -12.804,2.874 c 0,-3.141 -0.125,-6.206 -0.353,-9.187 3.948,2.97 7.475,6.097 10.477,9.29 -2.965,3.097 -6.496,6.197 -10.484,9.172 0.233,-3.008 0.36,-6.102 0.36,-9.275 m -13.454,22.145 c 2.815,-1.461 5.503,-3 8.065,-4.592 -0.631,3.859 -1.461,7.501 -2.459,10.854 -3.8,-0.754 -7.774,-1.851 -11.823,-3.269 2.08,-0.93 4.156,-1.923 6.217,-2.993 M -49.4,24.942 c 2.052,1.083 4.12,2.089 6.19,3.032 -4.003,1.371 -7.933,2.434 -11.692,3.163 -0.984,-3.334 -1.804,-6.951 -2.427,-10.781 2.542,1.602 5.187,3.139 7.929,4.586 M -62.707,2.874 c 0,3.142 0.125,6.207 0.353,9.188 -3.947,-2.97 -7.474,-6.097 -10.476,-9.29 2.965,-3.097 6.495,-6.197 10.483,-9.172 -0.232,3.008 -0.36,6.102 -0.36,9.274 m 13.455,-22.144 c -2.815,1.461 -5.503,3 -8.065,4.592 0.631,-3.859 1.461,-7.501 2.459,-10.855 3.8,0.755 7.774,1.852 11.822,3.27 -2.079,0.93 -4.155,1.923 -6.216,2.993 m 23.142,0.077 c -2.052,-1.083 -4.12,-2.089 -6.19,-3.032 4.002,-1.371 7.932,-2.434 11.692,-3.163 0.984,3.334 1.804,6.951 2.427,10.781 -2.542,-1.602 -5.187,-3.139 -7.929,-4.586 m 8.645,9.81 c 0.436,3.938 0.669,8.046 0.669,12.257 0,4.235 -0.235,8.367 -0.676,12.324 -3.309,2.214 -6.868,4.327 -10.626,6.278 -3.228,1.676 -6.49,3.175 -9.734,4.488 -3.234,-1.335 -6.485,-2.854 -9.705,-4.553 -3.695,-1.95 -7.215,-4.058 -10.509,-6.28 -0.435,-3.937 -0.668,-8.046 -0.668,-12.257 0,-4.234 0.235,-8.366 0.676,-12.323 3.309,-2.215 6.867,-4.327 10.626,-6.279 3.228,-1.676 6.49,-3.174 9.734,-4.487 3.234,1.335 6.485,2.854 9.705,4.553 3.695,1.95 7.214,4.058 10.508,6.279 m 0.825,41.335 c 1.286,-4.409 2.282,-9.268 2.936,-14.465 5.306,-3.661 9.923,-7.546 13.702,-11.473 0.239,0.29 0.483,0.579 0.713,0.87 6.037,7.639 8.103,14.666 5.669,19.28 -2.15,4.076 -7.768,6.32 -15.819,6.32 -2.277,0 -4.693,-0.187 -7.201,-0.532 m 26.719,-53.911 c -2.873,-5.532 -9.838,-8.579 -19.613,-8.579 -2.616,0 -5.396,0.225 -8.284,0.641 -4.518,-12.914 -11.701,-21.124 -19.937,-21.124 -8.202,0 -15.359,8.144 -19.88,20.965 -2.943,-0.436 -5.774,-0.671 -8.436,-0.671 -9.603,0 -16.475,3 -19.349,8.449 -3.254,6.163 -1.099,14.552 6.067,23.619 0.366,0.463 0.749,0.925 1.136,1.387 -7.784,9.155 -10.855,18.268 -7.372,24.979 2.873,5.533 9.838,8.579 19.612,8.579 2.617,0 5.396,-0.224 8.284,-0.64 4.518,12.914 11.701,21.124 19.938,21.124 8.202,0 15.358,-8.144 19.88,-20.965 2.943,0.436 5.774,0.671 8.436,0.671 9.603,0 16.475,-3.001 19.349,-8.449 C 13.163,21.863 11.008,13.475 3.843,4.408 3.477,3.945 3.094,3.483 2.706,3.021 c 7.785,-9.156 10.856,-18.268 7.373,-24.98" /></g><g
           transform="translate(161.762,158.3784)"
           id="g904"><path
             id="path906"
             style="fill:#12222c;fill-opacity:1;fill-rule:nonzero;stroke:none"
             d="m 0,0 c -0.096,0 -0.192,0.005 -0.289,0.017 -1.372,0.158 -2.356,1.398 -2.197,2.769 0.013,0.155 1.304,18.366 -32.428,41.206 -30.504,20.653 -30.884,44.62 -30.885,45.63 -0.002,1.381 1.116,2.501 2.497,2.503 h 0.003 c 1.377,0 2.494,-1.113 2.5,-2.489 0.003,-0.281 0.554,-22.455 28.688,-41.503 C 4.468,23.365 2.579,3.065 2.48,2.214 2.334,0.939 1.253,0 0,0" /></g><g
           transform="translate(98.4827,158.3921)"
           id="g908"><path
             id="path910"
             style="fill:#12222c;fill-opacity:1;fill-rule:nonzero;stroke:none"
             d="m 0,0 c -1.252,0 -2.329,0.928 -2.476,2.2 -0.098,0.852 -1.987,21.152 34.592,45.919 28.333,19.183 28.688,41.275 28.688,41.495 0.002,1.38 1.121,2.497 2.5,2.497 h 0.003 c 1.381,-0.002 2.499,-1.122 2.497,-2.503 C 65.803,88.599 65.423,64.631 34.919,43.979 1.187,21.139 2.478,2.928 2.494,2.747 2.622,1.383 1.629,0.156 0.267,0.014 0.177,0.004 0.088,0 0,0" /></g><g
           transform="translate(147.8792,238.0562)"
           id="g912"><path
             id="path914"
             style="fill:#12222c;fill-opacity:1;fill-rule:nonzero;stroke:none"
             d="m 0,0 h -35.509 c -1.381,0 -2.5,1.119 -2.5,2.5 0,1.381 1.119,2.5 2.5,2.5 H 0 C 1.381,5 2.5,3.881 2.5,2.5 2.5,1.119 1.381,0 0,0" /></g><g
           transform="translate(142.6673,227.4448)"
           id="g916"><path
             id="path918"
             style="fill:#12222c;fill-opacity:1;fill-rule:nonzero;stroke:none"
             d="m 0,0 h -25.085 c -1.381,0 -2.5,1.119 -2.5,2.5 0,1.381 1.119,2.5 2.5,2.5 H 0 C 1.381,5 2.5,3.881 2.5,2.5 2.5,1.119 1.381,0 0,0" /></g><g
           transform="translate(133.4758,216.8335)"
           id="g920"><path
             id="path922"
             style="fill:#12222c;fill-opacity:1;fill-rule:nonzero;stroke:none"
             d="m 0,0 h -6.702 c -1.381,0 -2.5,1.119 -2.5,2.5 0,1.381 1.119,2.5 2.5,2.5 H 0 C 1.381,5 2.5,3.881 2.5,2.5 2.5,1.119 1.381,0 0,0" /></g><g
           transform="translate(147.8792,161.729)"
           id="g924"><path
             id="path926"
             style="fill:#12222c;fill-opacity:1;fill-rule:nonzero;stroke:none"
             d="m 0,0 h -35.509 c -1.381,0 -2.5,1.119 -2.5,2.5 0,1.381 1.119,2.5 2.5,2.5 H 0 C 1.381,5 2.5,3.881 2.5,2.5 2.5,1.119 1.381,0 0,0" /></g><g
           transform="translate(142.6673,172.3403)"
           id="g928"><path
             id="path930"
             style="fill:#12222c;fill-opacity:1;fill-rule:nonzero;stroke:none"
             d="m 0,0 h -25.085 c -1.381,0 -2.5,1.119 -2.5,2.5 0,1.381 1.119,2.5 2.5,2.5 H 0 C 1.381,5 2.5,3.881 2.5,2.5 2.5,1.119 1.381,0 0,0" /></g><g
           transform="translate(133.4758,182.9517)"
           id="g932"><path
             id="path934"
             style="fill:#12222c;fill-opacity:1;fill-rule:nonzero;stroke:none"
             d="m 0,0 h -6.702 c -1.381,0 -2.5,1.119 -2.5,2.5 0,1.381 1.119,2.5 2.5,2.5 H 0 C 1.381,5 2.5,3.881 2.5,2.5 2.5,1.119 1.381,0 0,0" /></g><g
           transform="translate(136.4644,65.2637)"
           id="g936"><path
             id="path938"
             style="fill:#12222c;fill-opacity:1;fill-rule:nonzero;stroke:none"
             d="m 0,0 c -4.537,0 -9.246,1.004 -12.114,2.598 -9.338,5.188 -10.768,32.863 -11.031,53.229 l -0.018,1.341 c -0.065,4.235 1.191,7.42 3.732,9.464 4.559,3.668 11.495,2.09 11.788,2.02 l -0.684,-2.921 c -0.058,0.014 -5.825,1.307 -9.233,-1.444 -1.777,-1.435 -2.653,-3.815 -2.603,-7.074 l 0.018,-1.348 c 0.27,-20.848 2.134,-46.558 9.488,-50.644 2.505,-1.393 6.961,-2.295 11.093,-2.217 5.769,0.092 9.537,2.361 11.201,6.747 4.425,11.664 12.546,37.424 12.628,37.683 l 0.058,0.154 c 0.026,0.06 2.732,6.407 -0.112,11.518 -1.938,3.484 -6.044,5.706 -12.205,6.602 l 0.433,2.969 c 7.147,-1.041 11.994,-3.778 14.406,-8.134 3.4,-6.142 0.631,-13.194 0.259,-14.081 C 26.624,44.942 18.781,20.126 14.441,8.687 12.329,3.118 7.503,0.116 0.484,0.004 0.323,0.002 0.161,0 0,0" /></g><g
           transform="translate(101.7315,107.3428)"
           id="g940"><path
             id="path942"
             style="fill:#12222c;fill-opacity:1;fill-rule:nonzero;stroke:none"
             d="m 0,0 c 0,-4.182 -3.402,-7.584 -7.584,-7.584 -4.182,0 -7.584,3.402 -7.584,7.584 0,4.182 3.402,7.584 7.584,7.584 C -3.402,7.584 0,4.182 0,0 M 3,0 C 3,5.836 -1.748,10.584 -7.584,10.584 -13.42,10.584 -18.168,5.836 -18.168,0 c 0,-5.836 4.748,-10.584 10.584,-10.584 C -1.748,-10.584 3,-5.836 3,0" /></g><g
           transform="translate(132.1846,132.4563)"
           id="g944"><path
             id="path946"
             style="fill:#12222c;fill-opacity:1;fill-rule:nonzero;stroke:none"
             d="m 0,0 c 0,-1.538 -1.247,-2.785 -2.785,-2.785 -1.539,0 -2.786,1.247 -2.786,2.785 0,1.538 1.247,2.785 2.786,2.785 C -1.247,2.785 0,1.538 0,0" /></g><g
           transform="translate(150.6264,132.4563)"
           id="g948"><path
             id="path950"
             style="fill:#12222c;fill-opacity:1;fill-rule:nonzero;stroke:none"
             d="m 0,0 c 0,-1.538 -1.247,-2.785 -2.785,-2.785 -1.539,0 -2.786,1.247 -2.786,2.785 0,1.538 1.247,2.785 2.786,2.785 C -1.247,2.785 0,1.538 0,0" /></g><g
           transform="translate(118.419,24.3984)"
           id="g952"><path
             id="path954"
             style="fill:#12222c;fill-opacity:1;fill-rule:nonzero;stroke:none"
             d="m 0,0 c -6.661,0 -13.299,2.391 -17.762,6.999 -10.147,10.479 -6.752,20.806 -3.824,26.028 1.882,3.36 11.083,11.788 12.908,13.444 l 1.367,1.232 c 6.129,5.51 13.076,11.755 15.534,21.899 0.876,3.611 0.402,6.401 -1.447,8.53 -4.663,5.368 -17.294,5.406 -21.768,4.971 l -0.392,3.98 c 0.739,0.072 18.199,1.7 25.176,-6.323 2.725,-3.134 3.505,-7.205 2.319,-12.1 C 9.36,57.312 1.599,50.334 -4.637,44.729 L -5.991,43.508 C -10.19,39.699 -16.88,33.244 -18.097,31.072 -21.008,25.877 -22.814,17.967 -14.889,9.782 -8.254,2.931 4.166,1.965 12.232,7.669 c 8.901,6.297 9.67,18.618 2.109,33.805 l 3.581,1.783 C 30.039,18.919 19.595,7.978 14.542,4.403 10.354,1.441 5.17,0.001 0,0" /></g></g></g></g></svg>