<?xml version="1.0" encoding="UTF-8" standalone="no"?>
<svg
   xmlns:dc="http://purl.org/dc/elements/1.1/"
   xmlns:cc="http://creativecommons.org/ns#"
   xmlns:rdf="http://www.w3.org/1999/02/22-rdf-syntax-ns#"
   xmlns:svg="http://www.w3.org/2000/svg"
   xmlns="http://www.w3.org/2000/svg"
   id="svg1607"
   version="1.1"
   viewBox="0 0 70.471909 61.030663"
   height="61.030663mm"
   width="70.471909mm">
  <defs
     id="defs1601" />
  <metadata
     id="metadata1604">
    <rdf:RDF>
      <cc:Work
         rdf:about="">
        <dc:format>image/svg+xml</dc:format>
        <dc:type
           rdf:resource="http://purl.org/dc/dcmitype/StillImage" />
        <dc:title></dc:title>
      </cc:Work>
    </rdf:RDF>
  </metadata>
  <g
     transform="translate(-10.669164,-84.980459)"
     id="layer1">
    <g
       transform="matrix(0.35277777,0,0,-0.35277777,63.523069,146.01112)"
       id="g844">
      <path
         id="path846"
         style="fill:#12222c;fill-opacity:1;fill-rule:nonzero;stroke:none"
         d="m 0,0 h -6.366 v 3 h 4.634 l 2.317,4.013 2.598,-1.5 z" />
    </g>
    <g
       transform="matrix(0.35277777,0,0,-0.35277777,77.822105,121.24432)"
       id="g848">
      <path
         id="path850"
         style="fill:#12222c;fill-opacity:1;fill-rule:nonzero;stroke:none"
         d="m 0,0 -2.598,1.5 -6.225,-10.782 2.598,-1.5 z m -12.45,-21.564 -2.598,1.5 -6.225,-10.783 2.598,-1.5 z m -12.45,-21.564 -2.598,1.5 -6.225,-10.782 2.598,-1.5 z" />
    </g>
    <g
       transform="matrix(0.35277777,0,0,-0.35277777,80.018183,117.44095)"
       id="g852">
      <path
         id="path854"
         style="fill:#12222c;fill-opacity:1;fill-rule:nonzero;stroke:none"
         d="M 0,0 -2.598,1.5 -0.281,5.514 -2.598,9.526 0,11.026 3.183,5.514 Z" />
    </g>
    <g
       transform="matrix(0.35277777,0,0,-0.35277777,69.037975,94.532764)"
       id="g856">
      <path
         id="path858"
         style="fill:#12222c;fill-opacity:1;fill-rule:nonzero;stroke:none"
         d="M 0,0 -6.225,10.782 -8.823,9.282 -2.598,-1.5 Z m 12.45,-21.564 -6.225,10.782 -2.598,-1.5 6.226,-10.782 z m 12.45,-21.564 -6.225,10.782 -2.598,-1.5 6.225,-10.782 z" />
    </g>
    <g
       transform="matrix(0.35277777,0,0,-0.35277777,63.729444,87.454842)"
       id="g860">
      <path
         id="path862"
         style="fill:#12222c;fill-opacity:1;fill-rule:nonzero;stroke:none"
         d="m 0,0 -2.317,4.014 h -4.634 v 3 h 6.366 L 2.598,1.5 Z" />
    </g>
    <path
       id="path864"
       style="fill:#12222c;fill-opacity:1;fill-rule:nonzero;stroke:none;stroke-width:0.35277775"
       d="m 39.317083,84.980564 h -4.392084 v 1.058334 h 4.392084 z m 8.784167,0 h -4.392084 v 1.058334 h 4.392084 z m 8.784166,0 h -4.392083 v 1.058334 h 4.392083 z" />
    <g
       transform="matrix(0.35277777,0,0,-0.35277777,28.080616,87.454842)"
       id="g866">
      <path
         id="path868"
         style="fill:#12222c;fill-opacity:1;fill-rule:nonzero;stroke:none"
         d="m 0,0 -2.598,1.5 3.183,5.514 h 6.366 v -3 H 2.317 Z" />
    </g>
    <g
       transform="matrix(0.35277777,0,0,-0.35277777,25.88454,91.25821)"
       id="g870">
      <path
         id="path872"
         style="fill:#12222c;fill-opacity:1;fill-rule:nonzero;stroke:none"
         d="m 0,0 -2.598,1.5 -6.225,-10.782 2.598,-1.5 z m -12.45,-21.563 -2.597,1.5 -6.225,-10.783 2.597,-1.5 z m -12.45,-21.565 -2.598,1.5 -6.225,-10.782 2.598,-1.5 z" />
    </g>
    <g
       transform="matrix(0.35277777,0,0,-0.35277777,11.792056,117.44095)"
       id="g874">
      <path
         id="path876"
         style="fill:#12222c;fill-opacity:1;fill-rule:nonzero;stroke:none"
         d="M 0,0 -3.183,5.514 0,11.026 2.598,9.526 0.281,5.514 2.598,1.5 Z" />
    </g>
    <g
       transform="matrix(0.35277777,0,0,-0.35277777,17.100585,124.51887)"
       id="g878">
      <path
         id="path880"
         style="fill:#12222c;fill-opacity:1;fill-rule:nonzero;stroke:none"
         d="M 0,0 -6.225,10.782 -8.823,9.282 -2.598,-1.5 Z m 12.45,-21.563 -6.225,10.782 -2.598,-1.5 6.225,-10.782 z m 12.45,-21.565 -6.225,10.782 -2.598,-1.5 6.225,-10.782 z" />
    </g>
    <g
       transform="matrix(0.35277777,0,0,-0.35277777,30.532845,146.01112)"
       id="g882">
      <path
         id="path884"
         style="fill:#12222c;fill-opacity:1;fill-rule:nonzero;stroke:none"
         d="m 0,0 h -6.366 l -3.183,5.513 2.598,1.5 L -4.634,3 H 0 Z" />
    </g>
    <path
       id="path886"
       style="fill:#12222c;fill-opacity:1;fill-rule:nonzero;stroke:none;stroke-width:0.35277775"
       d="m 39.317083,144.95278 h -4.392084 v 1.05834 h 4.392084 z m 8.784167,0 h -4.392084 v 1.05834 h 4.392084 z m 8.784166,0 h -4.392083 v 1.05834 h 4.392083 z" />
  </g>
</svg>
