<?xml version="1.0" encoding="UTF-8" standalone="no"?>
<svg
   xmlns:dc="http://purl.org/dc/elements/1.1/"
   xmlns:cc="http://creativecommons.org/ns#"
   xmlns:rdf="http://www.w3.org/1999/02/22-rdf-syntax-ns#"
   xmlns:svg="http://www.w3.org/2000/svg"
   xmlns="http://www.w3.org/2000/svg"
   enable-background="new"
   id="svg2273"
   version="1.1"
   viewBox="0 0 70.471916 61.030655"
   height="61.030655mm"
   width="70.471916mm">
  <defs
     id="defs2267" />
  <metadata
     id="metadata2270">
    <rdf:RDF>
      <cc:Work
         rdf:about="">
        <dc:format>image/svg+xml</dc:format>
        <dc:type
           rdf:resource="http://purl.org/dc/dcmitype/StillImage" />
        <dc:title></dc:title>
      </cc:Work>
    </rdf:RDF>
  </metadata>
  <g
     style="display:inline"
     transform="translate(-69.764042,-117.98468)"
     id="dna_hex">
    <path
       class="hex"
       d="m 87.382215,117.98455 -1.122929,1.9451 0.916223,0.52917 0.817521,-1.41594 h 1.634526 v -1.05833 z m 6.637837,0 v 1.05833 h 4.39198 v -1.05833 z m 8.783958,0 v 1.05833 h 4.3925 v -1.05833 z m 8.78448,0 v 1.05833 h 4.39198 v -1.05833 z m 8.78396,0 v 1.05833 h 1.63452 l 0.81752,1.41594 0.91623,-0.52917 -1.12242,-1.9451 z m -36.309412,5.74849 -2.196249,3.8039 0.91674,0.52917 2.196248,-3.80391 z m 41.873922,0 -0.91674,0.52916 2.19625,3.80391 0.91674,-0.52917 z m -46.265902,7.60728 -2.195732,3.80391 0.916223,0.52916 2.195732,-3.8039 z m 50.657882,0 -0.91622,0.52917 2.19625,3.8039 0.91622,-0.52916 z m -55.049862,7.60729 -2.196248,3.8039 0.916739,0.52917 2.195732,-3.8039 z m 59.441842,0 -0.91622,0.52917 2.19573,3.8039 0.91674,-0.52917 z m -63.833822,7.60781 -1.122929,1.94458 1.122929,1.9451 0.916223,-0.52916 -0.817004,-1.41594 0.817004,-1.41542 z m 68.226322,0 -0.91674,0.52916 0.81752,1.41542 -0.81752,1.41594 0.91674,0.52916 1.12241,-1.9451 z m -65.113851,7.1639 -0.916739,0.52917 2.196248,3.80338 0.91674,-0.52916 z m 62.000861,0 -2.19573,3.80339 0.91622,0.52916 2.19625,-3.80338 z m -57.608881,7.60677 -0.916223,0.52917 2.195732,3.8039 0.91674,-0.52917 z m 53.216901,5.3e-4 -2.19573,3.8039 0.91622,0.52917 2.19625,-3.8039 z m -48.824921,7.60729 -0.916223,0.52916 2.195732,3.80391 0.916739,-0.52917 z m 44.432941,0 -2.19625,3.80338 0.91674,0.52917 2.19574,-3.80339 z m -40.040961,7.60729 -0.916223,0.52916 1.122929,1.9451 h 2.245858 v -1.05833 H 87.99303 Z m 35.648981,0 -0.81752,1.41593 h -1.63452 v 1.05833 h 2.24585 l 1.12242,-1.9451 z m -28.804438,1.41593 v 1.05833 h 4.39198 v -1.05833 z m 8.783958,0 v 1.05833 h 4.3925 v -1.05833 z m 8.78448,0 v 1.05833 h 4.39198 v -1.05833 z"
    />
    <path
       class="dna"
       transform="matrix(0.26458333,0,0,0.26458333,69.764042,117.98468)"
       d="m 90.955078,53.916016 c -1.841333,0.0026 -3.330793,1.496542 -3.328125,3.33789 0.0013,1.330678 0.522673,32.54457 39.773437,59.853514 -42.102601,30.92973 -39.841413,55.60792 -39.716796,56.69141 0.196002,1.69599 1.6334,2.93359 3.302734,2.93359 0.117317,0 0.235469,-0.004 0.355469,-0.0195 1.815999,-0.18932 3.139396,-1.82586 2.96875,-3.64453 -0.02062,-0.23321 -1.619355,-22.91809 38.865233,-51.92774 40.48336,29.00915 38.88545,51.69475 38.86719,51.89454 -0.21199,1.828 1.10036,3.48088 2.92969,3.6914 0.12945,0.0151 0.25664,0.0234 0.38476,0.0234 1.67067,0 3.112,-1.25118 3.30664,-2.95117 0.12588,-1.08219 2.38775,-25.76051 -39.71484,-56.69141 39.25159,-27.307835 39.77408,-58.524171 39.77539,-59.853514 0.003,-1.841348 -1.48877,-3.333292 -3.33008,-3.335937 h -0.004 c -1.83866,0 -3.32938,1.488137 -3.33203,3.328125 0,0.293329 -0.47463,29.750777 -38.25195,55.328126 -0.21747,0.14725 -0.41542,0.29244 -0.63086,0.43945 -0.21615,-0.1475 -0.41461,-0.29366 -0.63281,-0.4414 C 95.030988,87.174936 94.297126,57.610879 94.292969,57.236328 c -0.008,-1.834658 -1.497985,-3.320312 -3.333985,-3.320312 z m 18.546872,9.929687 c -1.84133,0 -3.33203,1.492636 -3.33203,3.333985 0,1.84131 1.4907,3.333984 3.33203,3.333984 h 47.34571 c 1.84134,0 3.33398,-1.492674 3.33398,-3.333984 0,-1.841349 -1.49264,-3.333985 -3.33398,-3.333985 z m 6.94922,14.148438 c -1.84135,0 -3.33203,1.492636 -3.33203,3.333984 0,1.84131 1.49068,3.333984 3.33203,3.333984 h 33.44727 c 1.84135,0 3.33398,-1.492674 3.33398,-3.333984 0,-1.841348 -1.49263,-3.333984 -3.33398,-3.333984 z m 12.25586,14.148437 c -1.84131,0 -3.33398,1.492636 -3.33398,3.333984 0,1.841311 1.49267,3.333985 3.33398,3.333985 h 8.93555 c 1.84135,0 3.33398,-1.492674 3.33398,-3.333985 0,-1.841348 -1.49263,-3.333984 -3.33398,-3.333984 z m 0,45.175782 c -1.84131,0 -3.33398,1.49264 -3.33398,3.33398 0,1.84131 1.49267,3.33399 3.33398,3.33399 h 8.93555 c 1.84135,0 3.33398,-1.49268 3.33398,-3.33399 0,-1.84134 -1.49263,-3.33398 -3.33398,-3.33398 z m -12.25586,14.14844 c -1.84135,0 -3.33203,1.49263 -3.33203,3.33398 0,1.84131 1.49068,3.33399 3.33203,3.33399 h 33.44727 c 1.84135,0 3.33398,-1.49268 3.33398,-3.33399 0,-1.84135 -1.49263,-3.33398 -3.33398,-3.33398 z m -6.94922,14.14843 c -1.84133,0 -3.33203,1.49264 -3.33203,3.33399 0,1.84131 1.4907,3.33398 3.33203,3.33398 h 47.34571 c 1.84134,0 3.33398,-1.49267 3.33398,-3.33398 0,-1.84135 -1.49264,-3.33399 -3.33398,-3.33399 z"
    />
  </g>
</svg>
