<?xml version="1.0" encoding="UTF-8" standalone="no"?>
<svg
   xmlns:dc="http://purl.org/dc/elements/1.1/"
   xmlns:cc="http://creativecommons.org/ns#"
   xmlns:rdf="http://www.w3.org/1999/02/22-rdf-syntax-ns#"
   xmlns:svg="http://www.w3.org/2000/svg"
   xmlns="http://www.w3.org/2000/svg"
   enable-background="new"
   id="svg2273"
   version="1.1"
   viewBox="0 0 70.471916 61.030655"
   height="61.030655mm"
   width="70.471916mm">
  <defs
     id="defs2267" />
  <metadata
     id="metadata2270">
    <rdf:RDF>
      <cc:Work
         rdf:about="">
        <dc:format>image/svg+xml</dc:format>
        <dc:type
           rdf:resource="http://purl.org/dc/dcmitype/StillImage" />
        <dc:title></dc:title>
      </cc:Work>
    </rdf:RDF>
  </metadata>
  <g
     style="display:inline;"
     transform="translate(-69.764042,-117.98468)"
     id="atom_hex">
    <path
       transform="matrix(0.26458333,0,0,0.26458333,87.622668,129.48696)"
       d="M 65.67897,0 C 54.696301,0 45.11899,10.947364 39.094989,28.166022 35.24432,27.611339 31.5394,27.312492 28.050065,27.312492 c -13.032001,0 -22.3197247,4.060157 -26.1503893,11.437493 -4.6440001,8.948031 -0.5485871,21.100006 9.8300793,33.306671 -0.516,0.615987 -1.027628,1.232277 -1.515625,1.849587 -9.55466851,12.089348 -12.4285117,23.27486 -8.0898446,31.492197 3.8319988,7.26535 12.9948286,11.26367 25.7988286,11.26367 3.549332,0 7.324048,-0.31332 11.248048,-0.89454 6.027999,17.09469 15.571809,27.95312 26.507808,27.95312 10.98133,0 20.558029,-10.94539 26.582029,-28.16405 3.85067,0.55468 7.55692,0.85353 11.044921,0.85353 13.03334,0 22.31973,-4.06152 26.15039,-11.43753 4.644,-8.949319 0.54993,-21.098611 -9.83007,-33.306636 0.51733,-0.615987 1.02762,-1.232277 1.51562,-1.849587 9.55333,-12.089349 12.42718,-23.273538 8.08985,-31.492196 -3.832,-7.263988 -12.99483,-11.265638 -25.79883,-11.265638 -3.549341,0 -7.324049,0.313323 -11.248049,0.894539 C 86.155501,10.858469 76.614972,0 65.67897,0 Z m 0,5.3242205 c 8.342672,0 15.966671,9.2526995 21.138671,23.5820225 -6.82133,1.401335 -14.003672,3.577927 -21.263672,6.447269 C 58.357972,32.566866 51.23594,30.453052 44.471942,29.095711 49.643942,14.658369 57.298971,5.3242205 65.67897,5.3242205 Z m 37.75391,27.0566555 c 10.73466,0 18.22513,2.993046 21.09179,8.427704 3.24534,6.152013 0.49074,15.521726 -7.55859,25.707062 -0.30667,0.387968 -0.6325,0.77348 -0.95117,1.160126 C 110.97624,62.439799 104.822,57.258294 97.747332,52.376958 96.87533,45.44761 95.54598,38.970482 93.83131,33.091805 c 3.344001,-0.460006 6.56557,-0.710929 9.60157,-0.710929 z M 28.050065,32.63486 c 2.980002,0 6.134158,0.235843 9.410158,0.671849 C 35.76289,39.172045 34.45108,45.628045 33.591083,52.529386 26.640414,57.396057 20.463128,62.632744 15.339128,68.027415 6.7524606,57.818079 3.1016184,47.988549 6.6242855,41.2032 9.4922855,35.677871 17.1034,32.63486 28.050065,32.63486 Z m 60.431645,1.351559 c 1.330662,4.470652 2.437962,9.325342 3.279292,14.470678 -3.416001,-2.122659 -7.00057,-4.175018 -10.753901,-6.123024 -2.748,-1.426696 -5.515729,-2.750249 -8.289071,-3.990236 5.398669,-1.890671 10.697012,-3.352101 15.76368,-4.357418 z m -45.666018,0.191244 c 5.011998,0.971981 10.25251,2.388775 15.589838,4.216782 -2.760001,1.257335 -5.517899,2.598992 -8.253899,4.042998 -3.656001,1.929298 -7.182932,3.9792 -10.572269,6.1152 0.830669,-5.106633 1.924328,-9.92965 3.23633,-14.37498 z M 65.57546,41.07413 c 4.325333,1.750677 8.674511,3.749707 12.978512,5.98439 5.010667,2.601336 9.75597,5.419087 14.167967,8.371087 0.588,5.275994 0.902344,10.784995 0.902344,16.431647 0,5.614678 -0.311244,11.093103 -0.892574,16.343736 -4.392,2.961335 -9.083096,5.771112 -14.009767,8.371124 -4.293332,2.265298 -8.62941,4.290296 -12.941413,6.070296 -4.325329,-1.75067 -8.674507,-3.747738 -12.978508,-5.982422 -5.012002,-2.602658 -9.75597,-5.417763 -14.167971,-8.371086 -0.588,-5.275994 -0.90039,-10.786318 -0.90039,-16.431648 0,-5.614677 0.310602,-11.09246 0.89062,-16.341808 4.392,-2.962658 9.085062,-5.775005 14.011721,-8.374979 4.29334,-2.265336 8.62746,-4.290331 12.939459,-6.070337 z m 32.890621,18.419943 c 5.317329,3.966652 10.025179,8.101115 13.978519,12.230476 -4.00267,4.257335 -8.70475,8.426683 -13.968749,12.386683 0.303987,-3.974626 0.470698,-8.061997 0.470698,-12.249978 0,-4.230652 -0.169814,-8.356535 -0.480468,-12.367181 z m -65.585939,0.117165 c -0.303987,3.974665 -0.470702,8.060675 -0.470702,12.250016 0,4.22933 0.171137,8.35457 0.480472,12.365216 -5.317334,-3.966652 -10.025185,-8.099149 -13.978518,-12.22851 4.002667,-4.257336 8.706085,-8.426722 13.968748,-12.386722 z m 32.798828,1.603541 c -5.88,0 -10.64648,4.766475 -10.64648,10.646475 0,5.88 4.76648,10.644548 10.64648,10.644548 5.878669,0 10.644533,-4.764548 10.644533,-10.644548 0,-5.88 -4.765864,-10.646475 -10.644533,-10.646475 z m 50.33984,14.478501 c 8.58667,10.209335 12.23556,20.040831 8.7129,26.82618 -2.868,5.52533 -10.47779,8.56641 -21.42579,8.56641 -2.97866,0 -6.13415,-0.23584 -9.41015,-0.67188 1.697329,-5.86534 3.009762,-12.32134 3.87109,-19.222644 6.95067,-4.865348 13.12796,-10.103396 18.25195,-15.498066 z M 15.341082,76.046665 c 5.038666,5.235969 11.194862,10.416152 18.269529,15.29881 0.870671,6.927987 2.19806,13.406475 3.91406,19.285155 -3.345331,0.46 -6.565557,0.709 -9.601557,0.709 -10.734667,0 -18.2251315,-2.99112 -21.0917973,-8.42578 -3.2466671,-6.150687 -0.4907414,-15.521723 7.5585943,-25.707059 0.305348,-0.387968 0.632504,-0.77348 0.951171,-1.160126 z M 91.77663,95.169714 c -0.830668,5.106636 -1.924331,9.929646 -3.23633,14.374976 -5.013328,-0.97198 -10.251889,-2.39074 -15.58789,-4.21874 2.76,-1.25734 5.515952,-2.59896 8.251952,-4.04296 3.655997,-1.929339 7.182928,-3.977276 10.572268,-6.113276 z m -52.181639,0.09373 c 3.416001,2.122658 7.000569,4.175055 10.753901,6.123026 2.748,1.42666 5.517067,2.75025 8.289067,3.99024 -5.397339,1.89067 -10.697008,3.35467 -15.763676,4.36134 -1.330662,-4.47201 -2.437962,-9.32927 -3.279292,-14.474606 z M 65.80202,108.36892 c 7.197331,2.78797 14.318649,4.90046 21.083981,6.2578 -5.172,14.43731 -12.828359,23.77149 -21.207031,23.77149 -8.342669,0 -15.966668,-9.25466 -21.138668,-23.58399 6.821329,-1.40001 14.003048,-3.576 21.261718,-6.4453 z"
       class="atom" />
    <path
       transform="matrix(0.26458333,0,0,0.26458333,69.764166,117.98455)"
       d="m 66.587891,0 -4.244141,7.3515625 3.462891,2 L 68.896484,4 h 6.177735 V 0 Z m 25.08789,0 V 4 H 108.27539 V 0 Z M 124.875,0 v 4 h 16.60156 V 0 Z m 33.20117,0 v 4 h 16.59961 V 0 Z m 33.19922,0 v 4 h 6.17773 l 3.08985,5.3515625 3.46289,-2 L 199.76367,0 Z m -137.232421,21.726562 -8.300781,14.376954 3.464843,2 8.300781,-14.376954 z m 158.263671,0 -3.46484,2 8.30078,14.376954 3.46484,-2 z m -174.863281,28.751954 -8.298828,14.376953 3.462891,2 8.298828,-14.376953 z m 191.462891,0 -3.46289,2 8.30078,14.376953 3.46289,-2 z m -208.0625,28.751953 -8.300781,14.376953 3.464843,2 8.298829,-14.376953 z m 224.66211,0 -3.46289,2 8.29883,14.376953 3.46484,-2 z M 4.2441406,107.98438 0,115.33398 l 4.2441406,7.35157 3.4628906,-2 -3.0878906,-5.35157 3.0878906,-5.3496 z m 257.8632794,0 -3.46484,2 3.08984,5.3496 -3.08984,5.35157 3.46484,2 4.24219,-7.35157 z m -246.099608,27.07617 -3.464843,2 8.300781,14.375 3.464844,-2 z m 234.333988,0 -8.29883,14.375 3.46289,2 8.30078,-14.375 z m -217.734378,28.75 -3.462891,2 8.298828,14.37695 3.464844,-2 z m 201.134768,0.002 -8.29883,14.37695 3.46289,2 8.30078,-14.37695 z m -184.535159,28.75195 -3.46289,2 8.298828,14.37696 3.464843,-2 z m 167.935549,0 -8.30078,14.375 3.46484,2 8.29883,-14.375 z m -151.335939,28.75196 -3.462891,2 4.244141,7.35156 h 8.488281 v -4 h -6.179688 z m 134.736329,0 -3.08985,5.35156 h -6.17773 v 4 h 8.48828 l 4.24219,-7.35156 z m -108.867189,5.35156 v 4 h 16.599609 v -4 z m 33.199219,0 v 4 h 16.60156 v -4 z m 33.20117,0 v 4 h 16.59961 v -4 z"
       class="hex" />
  </g>
</svg>
